<svg xmlns="http://www.w3.org/2000/svg" width="100" height="40" viewBox="0,0,100,40"><path d="M17 5 C64 3,45 5,93 10" stroke="#333" fill="none"/><path d="M3 22 C54 13,36 21,92 23" stroke="#111" fill="none"/><path fill="#333" d="M24.64 32.94L24.62 32.92L24.64 32.94Q24.83 33.81 25.36 35.83L25.37 35.84L25.52 35.98Q21.26 34.62 16.65 34.88L16.59 34.82L16.69 34.93Q12.01 35.08 8.01 37.06L8.04 37.09L8.13 37.18Q8.27 36.41 8.31 36.48L8.35 36.52L8.28 36.45Q12.13 32.61 16.05 28.20L16.02 28.16L15.90 28.04Q20.31 23.05 21.49 18.37L21.65 18.53L21.54 18.42Q21.96 16.63 20.68 15.45L20.72 15.49L20.66 15.42Q19.55 14.41 17.76 14.57L17.59 14.39L17.63 14.43Q17.26 14.37 16.92 14.37L16.91 14.36L17.09 14.54Q15.37 14.35 14.12 15.26L14.29 15.43L14.26 15.40Q12.93 16.74 13.16 19.40L13.12 19.36L13.21 19.45Q11.30 18.99 10.08 18.53L10.20 18.65L10.14 18.59Q9.89 17.12 9.81 15.67L9.88 15.74L9.84 15.70Q9.75 14.05 10.36 12.91L10.45 13.00L10.37 12.93Q12.15 11.54 15.50 11.54L15.51 11.55L17.23 11.52L17.28 11.57Q19.63 11.67 20.58 11.79L20.62 11.83L20.58 11.79Q24.85 12.14 25.12 14.57L25.07 14.53L25.23 14.69Q25.12 15.07 25.05 15.87L25.09 15.92L25.08 15.90Q25.05 16.56 24.90 17.25L24.87 17.21L25.02 17.36Q23.39 25.49 15.82 32.34L15.82 32.34L15.64 32.16Q17.17 32.14 18.54 32.14L18.47 32.06L18.60 32.20Q21.68 32.04 24.54 32.84ZM24.01 12.05L24.02 12.07L23.95 11.99Q22.34 11.33 20.62 11.26L20.72 11.35L17.36 11.23L17.25 11.12Q12.78 10.84 10.57 11.94L10.69 12.06L10.61 11.98Q9.56 13.37 9.56 15.42L9.63 15.50L9.56 15.42Q9.70 16.25 10.01 19.07L9.90 18.96L9.83 18.89Q10.49 19.24 11.67 19.55L11.55 19.43L11.59 20.49L11.54 20.45Q11.51 20.91 11.59 21.45L11.70 21.56L11.57 21.43Q12.82 21.54 15.30 21.77L15.49 21.96L15.42 21.89Q15.32 21.45 15.32 21.11L15.43 21.22L15.31 21.10Q15.43 19.39 16.65 18.04L16.49 17.88L16.48 17.87Q17.80 16.62 19.59 16.73L19.57 16.72L19.65 16.80Q20.41 16.83 21.17 16.99L21.02 16.84L21.11 16.92Q21.13 17.21 21.20 17.62L21.24 17.67L21.20 17.62Q21.26 18.06 21.18 18.41L21.25 18.47L21.27 18.49Q20.06 23.29 15.64 28.13L15.57 28.06L15.65 28.13Q13.45 30.32 8.01 36.37L8.00 36.37L8.00 36.36Q7.76 37.15 7.42 37.72L7.38 37.69L7.43 37.74Q9.01 36.84 10.53 36.30L10.53 36.30L10.61 36.38Q9.86 36.92 8.91 38.41L8.85 38.36L8.90 38.40Q8.80 38.77 8.69 39.11L8.73 39.14L8.61 39.03Q13.63 37.12 19.11 37.31L19.05 37.25L19.06 37.26Q24.71 37.38 29.27 39.74L29.24 39.71L28.26 37.58L28.26 37.59Q27.71 36.35 27.44 35.55L27.47 35.58L27.37 35.48Q26.68 35.09 25.46 34.67L25.47 34.69L25.42 34.63Q25.21 33.85 24.83 32.48L24.83 32.48L24.87 32.52Q22.64 31.93 20.36 31.74L20.49 31.87L20.33 31.71Q25.01 27.14 26.53 18.88L26.71 19.05L26.75 16.02L26.90 16.16Q26.72 14.28 25.51 13.59L25.51 13.59L25.52 13.64L25.41 13.53Q25.44 13.52 25.36 13.52L25.34 13.50L25.31 13.47Q25.05 12.60 23.94 11.99Z"/><path fill="#222" d="M77.52 22.79L77.41 22.68L77.40 22.68Q74.00 22.70 72.89 26.05L72.77 25.93L72.91 26.07Q72.40 27.00 72.28 28.07L72.36 28.14L72.33 28.11Q72.17 30.20 73.16 31.53L73.13 31.50L73.08 31.45Q74.55 32.77 77.03 32.81L76.87 32.65L76.85 32.63Q78.77 32.76 80.18 31.62L80.22 31.66L80.21 31.65Q81.52 30.41 81.52 28.62L81.53 28.63L81.64 28.74Q81.57 28.33 81.49 27.95L81.45 27.91L81.59 28.04Q81.19 22.73 77.38 22.66ZM77.33 35.17L77.26 35.10L77.28 35.12Q73.54 35.41 71.75 33.39L71.68 33.32L71.71 33.36Q71.51 34.41 71.06 35.78L70.98 35.71L71.12 35.85Q69.07 36.50 67.81 37.07L67.89 37.14L67.81 37.07Q70.07 31.18 70.07 24.67L70.10 24.70L70.13 24.73Q69.99 16.29 66.56 8.45L66.56 8.45L66.64 8.52Q68.97 9.87 70.31 10.33L70.37 10.39L70.23 10.25Q72.41 16.96 72.56 22.78L72.45 22.67L72.52 22.74Q73.96 20.08 77.69 20.11L77.76 20.18L77.72 20.13Q80.90 20.12 82.38 21.98L82.49 22.09L82.51 22.11Q84.30 24.36 84.45 27.94L84.30 27.78L84.33 27.81Q84.46 29.05 84.38 30.65L84.43 30.69L84.44 30.70Q84.26 32.01 83.38 33.15L83.42 33.18L83.51 33.27Q81.69 34.92 77.35 35.18ZM82.87 37.74L82.89 37.75L82.93 37.80Q84.45 37.83 85.94 37.15L85.92 37.13L85.88 37.10Q86.93 35.74 86.97 33.80L86.96 33.80L86.96 33.80Q87.03 33.37 86.88 32.19L86.86 32.17L86.75 32.06Q86.79 31.49 86.68 30.58L86.63 30.54L86.69 30.59Q85.80 25.74 84.24 23.69L84.32 23.76L84.33 23.78Q84.32 23.73 83.52 22.
86L83.51 22.85L83.45 22.78Q83.31 22.61 82.78 21.81L82.72 21.75L82.60 21.63Q81.05 19.74 77.70 19.77L77.79 19.87L77.74 19.82Q75.72 19.89 74.47 20.50L74.45 20.49L74.38 20.42Q74.14 15.99 73.53 12.79L73.50 12.76L73.53 12.79Q72.76 12.59 71.27 12.21L71.17 12.10L71.32 12.26Q71.19 11.52 70.73 10.07L70.58 9.92L70.72 10.06Q68.22 9.19 65.98 7.63L65.88 7.54L66.04 7.70Q69.65 15.73 69.65 24.52L69.84 24.70L69.69 24.56Q69.80 31.64 67.33 37.84L67.25 37.77L67.24 37.75Q68.04 37.53 69.37 36.96L69.25 36.83L69.27 36.86Q69.00 37.57 68.39 39.09L68.42 39.12L68.49 39.19Q70.50 38.31 73.28 37.78L73.22 37.71L73.67 35.96L73.64 35.94Q75.97 37.66 82.90 37.77ZM79.07 25.02L79.10 25.05L78.97 24.93Q80.02 24.95 80.55 25.33L80.72 25.50L80.71 25.49Q81.03 26.00 81.26 28.02L81.18 27.94L81.09 27.84Q81.38 29.81 80.12 31.12L80.11 31.11L80.13 31.14Q78.94 32.52 77.00 32.40L77.00 32.40L76.98 32.38Q76.11 32.58 74.63 32.08L74.61 32.07L74.52 31.97Q74.28 31.47 74.28 30.93L74.29 30.95L74.32 30.98Q74.37 27.94 75.93 26.34L75.86 26.28L75.81 26.26L75.91 26.36Q77.36 24.99 79.11 25.07Z"/><path fill="#111" d="M44.26 32.96L44.30 33.00L44.26 32.96Q44.42 33.80 44.95 35.82L45.09 35.96L45.14 36.01Q40.84 34.60 36.23 34.87L36.18 34.81L36.28 34.92Q31.71 35.18 27.72 37.16L27.65 37.09L27.61 37.05Q27.90 36.44 27.94 36.51L27.97 36.54L27.85 36.42Q31.67 32.55 35.59 28.13L35.61 28.16L35.48 28.03Q40.03 23.17 41.21 18.48L41.06 18.34L41.06 18.34Q41.57 16.65 40.30 15.47L40.40 15.57L40.34 15.51Q39.02 14.28 37.23 14.43L37.26 14.46L37.29 14.50Q37.00 14.51 36.66 14.51L36.61 14.46L36.52 14.37Q35.15 14.52 33.89 15.43L33.81 15.35L33.78 15.33Q32.55 16.76 32.78 19.43L32.69 19.34L32.69 19.34Q30.98 19.07 29.76 18.61L29.68 18.53L29.76 18.62Q29.60 17.23 29.52 15.79L29.56 15.83L29.44 15.71Q29.49 14.19 30.10 13.05L30.07 13.03L29.93 12.88Q31.89 11.68 35.24 11.68L35.15 11.59L36.96 11.65L36.95 11.64Q39.17 11.62 40.12 11.73L40.20 11.81L40.06 11.67Q44.48 12.17 44.75 14.61L44.76 14.61L44.82 14.68Q44.73 15.08 44.65 15.87L44.66 15.89L44.82 16.04Q44.63 16.54 44.48 17.23L44.50 17.25L44.52 17.27Q42.85 25.34 35.27 32.19L35.30 32.23L35.33 32.25Q36.82 32.18 38.19 32.18L38.07 32.06L38.04 32.03Q41.35 32.11 44.21 32.91ZM43.63 12.07L43.70 12.15L43.72 12.17Q42.03 11.42 40.31 11.35L40.36 11.39L36.85 11.13L36.89 11.16Q32.54 11.00 30.33 12.10L30.29 12.06L30.15 11.92Q29.26 13.46 29.26 15.52L29.21 15.48L29.26 15.52Q29.30 16.24 29.60 19.06L29.48 18.94L29.49 18.95Q30.08 19.23 31.26 19.54L31.29 19.57L31.32 20.63L31.20 20.51Q31.21 21.01 31.28 21.55L31.19 21.45L31.25 21.51Q32.52 21.64 35.00 21.87L35.00 21.87L34.97 21.84Q35.00 21.53 35.00 21.18L34.99 21.18L35.04 21.23Q34.93 19.29 36.15 17.94L36.20 17.99L36.19 17.98Q37.30 16.52 39.09 16.63L39.28 16.82L39.21 16.75Q40.04 16.86 40.80 17.01L40.74 16.96L40.60 16.82Q40.82 17.30 40.89 17.72L40.93 17.76L40.90 17.72Q40.98 18.18 40.90 18.52L40.91 18.53L40.89 18.51Q39.70 23.33 35.28 28.17L35.19 28.08L35.13 28.01Q33.11 30.38 27.67 36.43L27.52 36.28L27.56 36.32Q27.44 37.23 27.10 37.80L27.10 37.80L27.17 37.88Q28.60 36.83 30.12 36.30L30.17 36.35L30.26 36.44Q29.49 36.96 28.54 38.45L28.52 38.42L28.59 38.50Q28.36 38.72 28.25 39.07L28.32 39.14L28.22 39.04Q33.09 36.98 38.57 37.17L38.67 37.27L38.65 37.25Q44.33 37.41 48.90 39.77L48.86 39.73L47.99 37.72L47.83 37.56Q47.30 36.34 47.03 35.54L47.01 35.52L46.99 35.50Q46.23 35.04 45.01 34.62L45.11 34.73L45.04 34.65Q44.95 33.99 44.57 32.62L44.49 32.54L44.45 32.50Q42.39 32.08 40.10 31.89L40.04 31.82L40.11 31.89Q44.62 27.15 46.14 18.89L46.29 19.03L46.37 16.04L46.33 16.00Q46.32 14.27 45.10 13.58L45.16 13.64L45.02 13.54L45.01 13.53Q45.08 13.56 45.00 13.56L44.87 13.43L45.01 13.57Q44.83 12.78 43.73 12.17Z"/><path fill="#444" d="M57.96 22.84L57.79 22.67L57.77 22.64Q54.35 22.65 53.25 26.00L53.13 25.89L53.13 25.88Q52.83 27.03 52.71 28.09L52.76 28.14L52.78 28.16Q52.55 30.17 53.54 31.51L53.48 31.44L53.47 31.44Q54.89 32.71 57.37 32.75L57.25 32.63L57.40 32.78Q59.17 32.76 60.58 31.62L60.64 31.68L60.52 31.56Q62.01 30.50 62.01 28.71L62.03 28.73L61.89 28.59Q62.02 28.38 61.94 28.00L61.87 27.93L61.89 27.94Q61.65 22.79 57.84 22.72ZM57.76 35.20L57.82 35.25L57.71 35.15Q53.91 35.38 52.12 33.
37L52.26 33.50L52.19 33.44Q51.93 34.43 51.47 35.80L51.53 35.85L51.48 35.80Q49.43 36.46 48.17 37.03L48.15 37.01L48.27 37.12Q50.46 31.17 50.46 24.66L50.50 24.70L50.45 24.65Q50.50 16.41 47.08 8.56L46.99 8.48L46.97 8.46Q49.29 9.79 50.63 10.25L50.74 10.36L50.73 10.35Q52.86 17.01 53.01 22.83L52.92 22.75L53.00 22.82Q54.37 20.08 58.10 20.12L58.07 20.09L58.13 20.14Q61.41 20.23 62.89 22.09L62.88 22.08L62.88 22.08Q64.72 24.37 64.87 27.95L64.87 27.96L64.89 27.97Q64.91 29.10 64.83 30.69L64.81 30.68L64.81 30.67Q64.75 32.10 63.88 33.24L63.89 33.26L63.81 33.18Q62.17 35.00 57.83 35.27ZM63.18 37.65L63.32 37.78L63.25 37.72Q64.77 37.75 66.25 37.06L66.30 37.11L66.30 37.11Q67.39 35.81 67.43 33.87L67.47 33.90L67.43 33.87Q67.31 33.25 67.16 32.07L67.27 32.18L67.27 32.18Q67.24 31.55 67.13 30.63L67.08 30.58L66.98 30.48Q66.14 25.68 64.58 23.63L64.73 23.78L64.59 23.64Q64.67 23.68 63.87 22.81L63.82 22.76L63.93 22.87Q63.69 22.58 63.15 21.78L63.03 21.66L63.11 21.74Q61.48 19.77 58.13 19.81L58.13 19.81L58.07 19.75Q56.07 19.83 54.81 20.44L54.77 20.41L54.80 20.43Q54.53 15.97 53.92 12.78L53.80 12.66L53.82 12.68Q53.15 12.58 51.67 12.20L51.64 12.17L51.58 12.12Q51.53 11.45 51.07 10.00L51.09 10.03L51.06 10.00Q48.59 9.16 46.34 7.60L46.44 7.70L46.42 7.68Q50.10 15.77 50.10 24.56L50.13 24.60L50.16 24.62Q50.10 31.53 47.62 37.74L47.63 37.74L47.68 37.80Q48.37 37.46 49.71 36.89L49.62 36.80L49.69 36.88Q49.37 37.54 48.76 39.06L48.94 39.24L48.94 39.24Q50.89 38.30 53.67 37.76L53.63 37.73L53.91 35.80L53.93 35.82Q56.40 37.68 63.33 37.79ZM59.40 24.96L59.37 24.93L59.42 24.98Q60.45 24.98 60.98 25.36L61.11 25.49L60.97 25.35Q61.40 25.97 61.63 27.99L61.47 27.83L61.59 27.95Q61.74 29.78 60.49 31.09L60.56 31.17L60.62 31.22Q59.31 32.49 57.37 32.37L57.33 32.33L57.34 32.34Q56.44 32.50 54.95 32.01L54.98 32.04L54.92 31.98Q54.76 31.55 54.76 31.02L54.80 31.06L54.69 30.95Q54.70 27.87 56.26 26.27L56.30 26.31L56.26 26.31L56.16 26.21Q57.69 24.92 59.44 25.00Z"/></svg>
